<svg xmlns="http://www.w3.org/2000/svg" width="12" height="14"><path d="M896.336 1018.792 653.972 776.428c-66.426 43.464-145.817 68.952-231.481 68.952C188.904 845.38 0 656.055 0 422.468 0 189.324 188.882-.001 422.491-.001c233.188 0 422.447 189.325 422.447 422.469 0 81.541-22.962 157.52-62.68 221.884L1026.351 888.4c12.922 12.567 2.083 43.907-23.849 69.772l-36.349 36.438c-25.932 25.865-57.272 36.704-69.817 24.181zM704.55 422.469c0-155.88-126.224-282.082-282.082-282.082-155.88 0-282.481 126.202-282.481 282.082S266.588 704.95 422.468 704.95c155.858 0 282.082-126.579 282.082-282.481z"/></svg>